<mxfile host="Electron" modified="2024-01-18T08:53:49.901Z" agent="Mozilla/5.0 (Windows NT 10.0; Win64; x64) AppleWebKit/537.36 (KHTML, like Gecko) draw.io/22.1.18 Chrome/120.0.6099.199 Electron/28.1.2 Safari/537.36" etag="_x9jG1WCzfW69kanuqDo" version="22.1.18" type="device">
  <diagram id="C5RBs43oDa-KdzZeNtuy" name="Page-1">
    <mxGraphModel dx="408" dy="473" grid="1" gridSize="10" guides="1" tooltips="1" connect="1" arrows="1" fold="1" page="1" pageScale="1" pageWidth="827" pageHeight="1169" math="0" shadow="0">
      <root>
        <mxCell id="WIyWlLk6GJQsqaUBKTNV-0" />
        <mxCell id="WIyWlLk6GJQsqaUBKTNV-1" parent="WIyWlLk6GJQsqaUBKTNV-0" />
        <mxCell id="AUsNLnRkie0-mLKOHLI2-0" value="w번 반복" style="swimlane;whiteSpace=wrap;html=1;" vertex="1" parent="WIyWlLk6GJQsqaUBKTNV-1">
          <mxGeometry x="90" y="310" width="680" height="560" as="geometry" />
        </mxCell>
        <mxCell id="AUsNLnRkie0-mLKOHLI2-1" value="i번사건을 처리하는데의 최소 비용은 경찰차 1이 아무 사건을 해결하지 않았을 때부터 경찰차 2가 아무사건을 해결하지 않았을때까지의 스펙트럼에 거리 절대값을 더한 것과 같다&lt;br&gt;" style="text;html=1;strokeColor=none;fillColor=none;align=center;verticalAlign=middle;whiteSpace=wrap;rounded=0;" vertex="1" parent="AUsNLnRkie0-mLKOHLI2-0">
          <mxGeometry x="74" y="90" width="250" height="10" as="geometry" />
        </mxCell>
        <mxCell id="AUsNLnRkie0-mLKOHLI2-3" value="i - 1번 반복( 0부터 i - 2 까지)" style="swimlane;whiteSpace=wrap;html=1;" vertex="1" parent="AUsNLnRkie0-mLKOHLI2-0">
          <mxGeometry x="140" y="150" width="350" height="170" as="geometry" />
        </mxCell>
        <mxCell id="AUsNLnRkie0-mLKOHLI2-7" value="경찰차 1이 i - 1번을 했고 2가 j번을 했을때" style="whiteSpace=wrap;html=1;" vertex="1" parent="AUsNLnRkie0-mLKOHLI2-3">
          <mxGeometry x="20" y="40" width="250" height="30" as="geometry" />
        </mxCell>
        <mxCell id="AUsNLnRkie0-mLKOHLI2-9" value="[i - i - 1]&amp;nbsp;" style="rhombus;whiteSpace=wrap;html=1;" vertex="1" parent="AUsNLnRkie0-mLKOHLI2-3">
          <mxGeometry x="30" y="80" width="80" height="80" as="geometry" />
        </mxCell>
        <mxCell id="AUsNLnRkie0-mLKOHLI2-5" value="i - 1번 반복( 0부터 i - 2 까지)" style="swimlane;whiteSpace=wrap;html=1;" vertex="1" parent="AUsNLnRkie0-mLKOHLI2-0">
          <mxGeometry x="140" y="340" width="350" height="170" as="geometry" />
        </mxCell>
        <mxCell id="AUsNLnRkie0-mLKOHLI2-8" value="경찰차 2가 i - 1번을 했고 1이 j번을 했을때" style="whiteSpace=wrap;html=1;" vertex="1" parent="AUsNLnRkie0-mLKOHLI2-5">
          <mxGeometry x="10" y="40" width="250" height="30" as="geometry" />
        </mxCell>
        <mxCell id="AUsNLnRkie0-mLKOHLI2-4" value="" style="rounded=0;whiteSpace=wrap;html=1;" vertex="1" parent="WIyWlLk6GJQsqaUBKTNV-1">
          <mxGeometry x="180" y="200" width="120" height="60" as="geometry" />
        </mxCell>
      </root>
    </mxGraphModel>
  </diagram>
</mxfile>
